<mxfile host="app.diagrams.net" modified="2024-07-19T11:09:07.153Z" agent="Mozilla/5.0 (X11; Linux x86_64) AppleWebKit/537.36 (KHTML, like Gecko) Chrome/126.0.0.0 Safari/537.36" version="24.7.1" etag="smYfz1Xc-36du2vNuHTk" type="github">
  <diagram name="Page-1" id="vFV6tIRYMf6Jvqy-i6DL">
    <mxGraphModel>
      <root>
        <mxCell id="0" />
        <mxCell id="1" parent="0" />
      </root>
    </mxGraphModel>
  </diagram>
</mxfile>
